<?xml version="1.0" encoding="UTF-8" standalone="no"?>
<!-- Created with Inkscape (http://www.inkscape.org/) -->

<svg
   width="33.373158mm"
   height="31.797689mm"
   viewBox="0 0 33.373158 31.797689"
   version="1.1"
   id="svg1"
   xml:space="preserve"
   xmlns="http://www.w3.org/2000/svg"
   xmlns:svg="http://www.w3.org/2000/svg"><defs
     id="defs1" /><g
     id="layer1"
     transform="translate(-40.016532,-144.04622)"><g
       id="g1"><path
         style="fill:#000000"
         d="m 56.857683,175.84338 c -9.566116,0.0715 -12.8724,-7.18618 -12.8724,-7.18618 0,0 2.61397,-0.0926 2.622989,-0.088 0,0 2.740127,5.16023 10.371277,4.93001 4.133382,0.24297 6.982036,-2.40827 9.614945,-5.1848 l 2.261625,0.002 c 0,0 -2.548989,7.48822 -11.998436,7.52732 z m -8.926455,-7.30497 2.507102,-0.0584 c 0,0 2.29799,2.56035 7.095891,2.57316 3.629004,0.01 5.183577,-2.73543 5.183577,-2.73543 l 2.241581,-0.0123 c -2.306194,2.78114 -4.257051,4.03615 -7.999459,4.31379 -5.57539,-0.0215 -9.028692,-4.08082 -9.028692,-4.08082 z m -7.914695,-1.1193 c 0,-0.13894 0.716916,-2.31805 1.593146,-4.84248 1.000172,-2.8815 1.798912,-4.7622 2.145978,-5.05289 0.475543,-0.39828 1.139725,-0.46302 4.750752,-0.46302 4.19125,0 4.19862,0.001 4.63344,0.66468 0.41957,0.64036 0.37753,0.83162 -1.14862,5.22552 l -1.58414,4.56084 -2.936745,0.0307 c -0.08068,0.0453 1.277435,-3.88955 1.277435,-3.88955 -0.745311,-0.13296 -3.745699,-0.2204 -4.569709,-0.1099 l -0.691706,1.98437 -0.691706,1.98437 c 0.0039,-0.0111 -2.778125,-0.0926 -2.778125,-0.0926 z m 9.789586,-6.76487 c 0.043,-0.13515 0.259928,-0.88827 0.267693,-1.08921 -1.708232,-0.14753 -3.016176,-0.10709 -4.437114,0.0715 -0.106835,0.38199 -0.231554,0.74818 -0.348832,1.00924 z m 1.441392,6.85304 c -0.16211,-2.8e-4 0.670368,-2.67991 1.634508,-5.43582 l 1.75298,-5.01074 h 4.06317 4.06318 l -0.46569,1.25677 -0.4657,1.25678 -5.224851,-0.0817 c -0.100864,0.1068 -0.446609,1.19618 -0.42881,1.33858 l 5.197208,0.0533 c 0,0 -0.526057,1.6758 -0.797947,2.5087 -1.673306,-0.0316 -3.353108,0.0199 -5.056135,0.0103 -0.523366,1.3697 -1.025698,2.73695 -1.612265,4.10842 z m 9.724018,-0.44531 c -0.53388,-0.53388 -0.36611,-1.54397 0.86716,-5.22095 1.75703,-5.23856 1.10736,-4.7803 6.77677,-4.7803 h 4.77423 l -0.17876,0.59532 c -0.59108,1.96841 -0.46192,1.90562 -4.21835,2.05052 l -3.42974,0.13229 -0.87078,2.3341 c -0.47893,1.28376 -0.80247,2.44461 -0.71899,2.57969 0.0835,0.13507 1.61828,0.24558 3.41066,0.24558 h 3.25889 l -0.42815,1.19063 -0.42814,1.19062 h -4.24865 c -2.95173,0 -4.34557,-0.0969 -4.56615,-0.3175 z M 48.024862,155.93101 c 0,-0.10117 0.42515,-0.59709 0.817352,-1.00646 l 0.7131,-0.74431 -0.61387,-1.25454 c -0.988861,-2.02089 -2.458767,-4.53127 -0.78838,-6.53305 3.216629,-3.66356 15.460012,-2.59149 17.54907,0.1715 1.297388,1.71593 -0.19269,3.63319 -1.14528,5.66881 l -0.81627,1.74431 0.66094,0.78548 c 0.363512,0.43201 0.791245,1.0257 0.791245,1.16006 0,0.13436 -0.674045,0.11397 -1.338595,0.11397 -0.87864,0 -1.44302,-0.17904 -2.06869,-0.65626 -2.50675,-1.91199 -7.38039,-1.97008 -9.93651,-0.11844 -0.84358,0.61109 -1.34933,0.7747 -2.39465,0.7747 -0.72886,0 -1.429462,-0.005 -1.429462,-0.10577 z m 12.832882,-3.73306 c 0.6219,0.15609 0.73449,0.0419 1.38254,-1.40214 0.76546,-1.70568 0.84239,-2.21095 0.44863,-2.94669 -0.9555,-1.78536 -8.94275,-2.15091 -11.6062,-0.53116 -1.07465,0.65353 -1.088467,1.43931 -0.0635,3.60589 l 0.77298,1.63393 1.20861,-0.36373 c 2.090304,-0.62907 5.640364,-0.55237 7.85694,0.004 z m -9.00584,-2.00622 c -0.6877,-1.53602 -0.41136,-1.97268 1.50191,-2.37336 1.91625,-0.40129 5.5515,-0.40028 6.77009,0.002 1.41102,0.46568 1.64673,0.88168 1.22449,2.16109 -0.31753,0.96212 -0.42255,1.05425 -1.03171,0.90511 -2.29934,-0.56295 -5.65333,-0.4385 -7.52352,0.27916 -0.32186,0.12351 -0.56048,-0.12338 -0.94126,-0.97389 z m -7.691536,5.53265 c 0,-0.24424 2.271866,-3.50078 2.714346,-3.868 0.31362,-0.26028 0.463404,-0.13319 0.84788,0.71942 l 0.46697,1.03555 -0.711882,1.15862 c -0.647643,1.05406 -0.913242,1.02829 -1.936405,1.02829 -0.630489,0 -1.380909,0.0167 -1.380909,-0.0739 z m 22.084512,-0.29166 -1.245156,-1.81631 1.241499,-1.49704 c 0.561126,-0.67663 1.366575,0.89 1.752444,1.45908 l 1.139396,2.24588 -1.162378,0.0211 c -1.15531,-0.004 -1.725805,-0.41271 -1.725805,-0.41271 z"
         id="path1" /></g></g></svg>
