<?xml version="1.0" encoding="UTF-8"?>
<svg version="1.1" xmlns="http://www.w3.org/2000/svg" width="440" height="440">
  <defs>
    <radialGradient id="paint0_radial_anaco_green" cx="0" cy="0" r="1" gradientUnits="userSpaceOnUse" gradientTransform="translate(2.77876 11.3795) rotate(18.6832) scale(29.8025 238.737)">
      <stop offset="0.0" stop-color="#3CB371"/>
      <stop offset="0.5" stop-color="#2E8B57"/>
      <stop offset="1.0" stop-color="#228B22"/>
    </radialGradient>
  </defs>

  <!-- Figure elements with green gradient -->
  <path d="M0 0 C0.66 0.33 1.32 0.66 2 1 C4.00156476 1.1059367 6.00668391 1.14666127 8.01101685 1.15821838 C9.29271759 1.1680072 10.57441833 1.17779602 11.8949585 1.18788147 C13.32336388 1.19378606 14.75176966 1.19959648 16.18017578 1.20532227 C17.67799146 1.21489808 19.17580441 1.22490798 20.6736145 1.23532104 C24.74772894 1.26240834 28.82185501 1.28339715 32.89600992 1.30332303 C37.15081825 1.32515904 41.40559057 1.35255937 45.66036987 1.37937927 C53.72095775 1.42933848 61.78156557 1.47426531 69.84219253 1.51740164 C79.0174206 1.56674646 88.19261256 1.62167479 97.36780572 1.67708123 C116.2451703 1.79095081 135.12256894 1.89777899 154 2 C153.34 4.64 152.68 7.28 152 10 C151.34 10 150.68 10 150 10 C149.8453125 11.60875 149.8453125 11.60875 149.6875 13.25 C148.99354619 17.0352026 148.31687958 18.12706932 146 21 C144.5861653 24.40232886 144.5861653 24.40232886 144 28 C103.41 28 62.82 28 21 28 C21 27.34 21 26.68 21 26 C20.34 26 19.68 26 19 26 C18.814375 27.1446875 18.814375 27.1446875 18.625 28.3125 C18 31 18 31 16 34 C47.35 34 78.7 34 111 34 C109.77270485 37.68188544 108.64357021 40.97887328 107.0546875 44.453125 C106.70019531 45.236875 106.34570312 46.020625 105.98046875 46.828125 C105.23624016 48.45859047 104.49143754 50.08879403 103.74609375 51.71875 C103.39417969 52.49734375 103.04226563 53.2759375 102.6796875 54.078125 C102.35726074 54.78356445 102.03483398 55.48900391 101.70263672 56.21582031 C100.87785856 57.99055773 100.87785856 57.99055773 101 60 C60.41 60 19.82 60 -22 60 C-22.33 59.34 -22.66 58.68 -23 58 C-23.99 57.67 -24.98 57.34 -26 57 C-25.68959274 56.52596237 -25.37918549 56.05192474 -25.05937195 55.56352234 C-21.84992611 50.56130681 -19.15792295 45.4627913 -16.64453125 40.08203125 C-16.25682053 39.26175949 -15.8691098 38.44148773 -15.46965027 37.59635925 C-14.65818762 35.87726523 -13.84907595 34.15705965 -13.04223633 32.43579102 C-11.809917 29.80698992 -10.570649 27.18155634 -9.33007812 24.55664062 C-8.53865949 22.87779409 -7.7476302 21.19876395 -6.95703125 19.51953125 C-6.58931107 18.7392305 -6.22159088 17.95892975 -5.84272766 17.15498352 C-2.05564781 9.41770429 -2.05564781 9.41770429 -1 1 C-0.67 0.67 -0.34 0.34 0 0 Z " fill="url(#paint0_radial_anaco_green)" transform="translate(206,238)"/>
  <path d="M0 0 C0.99 0.495 0.99 0.495 2 1 C3.88472859 1.15344209 5.77427874 1.24959571 7.6640625 1.31640625 C9.34628906 1.37924805 9.34628906 1.37924805 11.0625 1.44335938 C12.238125 1.48267578 13.41375 1.52199219 14.625 1.5625 C16.40003906 1.62727539 16.40003906 1.62727539 18.2109375 1.69335938 C21.14050328 1.79967426 24.07015588 1.90170642 27 2 C31.70797786 11.30050123 36.2833925 20.6515329 40.71923828 30.08496094 C42.85315491 34.61233694 45.04089918 39.10200227 47.3125 43.5625 C51.0420886 50.96207191 54.48203202 58.48870274 57.93774414 66.01928711 C62.48411993 75.9152529 67.10752937 85.7738187 71.75 95.625 C72.11205536 96.3934021 72.47411072 97.1618042 72.84713745 97.95349121 C74.89677209 102.30295064 76.94777582 106.65176184 79 111 C80.65 111 82.3 111 84 111 C77.55398661 96.9311548 71.03220368 82.90014581 64.42059326 68.90841675 C63.3150503 66.56789917 62.21135773 64.22651583 61.10791016 61.88500977 C58.08530003 55.4775245 55.05626504 49.07656238 51.9140625 42.7265625 C51.48440186 41.85056396 51.05474121 40.97456543 50.61206055 40.07202148 C49.86492753 38.55523742 49.10711468 37.0436328 48.33520508 35.53930664 C46.20248725 31.19232113 45.65690105 27.82209986 46 23 C46.66 23.33 47.32 23.66 48 24 C49.88472859 24.15344209 51.77427874 24.24959571 53.6640625 24.31640625 C55.34628906 24.37924805 55.34628906 24.37924805 57.0625 24.44335938 C58.238125 24.48267578 59.41375 24.52199219 60.625 24.5625 C61.80835938 24.60568359 62.99171875 24.64886719 64.2109375 24.69335938 C67.14050328 24.79967426 70.07015588 24.90170642 73 25 C78.83598316 36.54673916 84.46620364 48.18077912 90 59.875 C90.82984675 61.62600908 91.65976334 63.37698507 92.48974609 65.12792969 C94.59113623 69.56282878 96.6898781 73.99897493 98.78747559 78.43566895 C99.95444734 80.90366206 101.12215236 83.37130693 102.29003906 85.83886719 C106.88403024 95.54806889 111.45741409 105.26663711 116 115 C116.51401367 116.09989258 117.02802734 117.19978516 117.55761719 118.33300781 C118.88136102 121.1760383 120.1937361 124.02390463 121.5 126.875 C121.86818848 127.66551758 122.23637695 128.45603516 122.61572266 129.27050781 C124.22072662 132.81385656 125 135.04383444 125 139 C105.86 139 86.72 139 67 139 C67 138.34 67 137.68 67 137 C65.68 137.33 64.36 137.66 63 138 C58.85791299 131.77534234 55.66482758 125.31608941 52.55596924 118.52258301 C51.34670982 115.8803822 50.12536312 113.2438175 48.90509033 110.60668945 C48.25794774 109.20772365 47.61143143 107.80846797 46.96551514 106.40893555 C43.71955908 99.37814362 40.42487219 92.3706237 37.12258911 85.3661499 C36.11875618 83.23675522 35.1157747 81.10696146 34.11303711 78.97705078 C31.38602287 73.18504933 28.65749218 67.39376414 25.92675781 61.60351562 C25.23502189 60.13672071 24.54329011 58.66992384 23.8515625 57.203125 C23.51041412 56.47975952 23.16926575 55.75639404 22.81777954 55.0111084 C20.14980656 49.35223684 17.49037138 43.68938566 14.83407593 38.02502441 C12.97659137 34.06754458 11.10548467 30.11692014 9.22174072 26.171875 C8.34981627 24.342388 7.48295495 22.51060279 6.61816406 20.67773438 C5.57179996 18.46123588 4.51701597 16.2486842 3.45214844 14.04101562 C2.99356445 13.06326172 2.53498047 12.08550781 2.0625 11.078125 C1.66160156 10.23668945 1.26070312 9.39525391 0.84765625 8.52832031 C-0.14336734 5.57237552 -0.14882587 3.09715661 0 0 Z " fill="url(#paint0_radial_anaco_green)" transform="translate(181,98)"/>
  <path d="M0 0 C5.0800704 1.88112959 6.13299057 5.70232979 8.31054688 10.36523438 C8.80619141 11.46158203 9.30183594 12.55792969 9.8125 13.6875 C10.5849707 15.30301758 10.5849707 15.30301758 11.37304688 16.95117188 C16.00883293 27.07294839 16.00883293 27.07294839 14 33 C12.23478243 37.14235139 10.26600386 41.16214098 8.25 45.1875 C7.04502194 47.63323556 5.84716675 50.08244701 4.6484375 52.53125 C4.34144928 53.15597702 4.03446106 53.78070404 3.71817017 54.42436218 C0.6723613 60.63365137 -2.23376067 66.90490759 -5.125 73.1875 C-10.48048045 84.78952133 -15.9448736 96.33737125 -21.4375 107.875 C-29.82985032 125.51366614 -29.82985032 125.51366614 -38.15286255 143.18511963 C-38.75168485 144.46215987 -39.35165113 145.73866442 -39.95285034 147.0145874 C-40.77524944 148.76078006 -41.59281787 150.50924536 -42.41015625 152.2578125 C-42.86527588 153.2286377 -43.32039551 154.19946289 -43.78930664 155.19970703 C-46.14368616 160.42196868 -46.14368616 160.42196868 -47 166 C-54.92 166 -62.84 166 -71 166 C-71 165.34 -71 164.68 -71 164 C-72.32 164 -73.64 164 -75 164 C-75 163.34 -75 162.68 -75 162 C-74.34 162 -73.68 162 -73 162 C-72.74130127 161.1642041 -72.48260254 160.3284082 -72.21606445 159.46728516 C-70.89223549 155.6927381 -69.27027026 152.12405556 -67.54296875 148.5234375 C-67.20396545 147.80933716 -66.86496216 147.09523682 -66.51568604 146.35949707 C-65.78803763 144.82748821 -65.05887631 143.29619718 -64.32833862 141.76556396 C-62.38375215 137.69079103 -60.45046631 133.61065678 -58.515625 129.53125 C-58.12712875 128.71292694 -57.73863251 127.89460388 -57.33836365 127.05148315 C-53.9981989 120.01090742 -50.70779611 112.94832896 -47.4375 105.875 C-42.35032678 94.88235865 -37.20678484 83.91730107 -32.04238892 72.96078491 C-28.42357721 65.28292285 -24.8089456 57.60327483 -21.22265625 49.91015625 C-20.92020493 49.26145569 -20.6177536 48.61275513 -20.30613708 47.94439697 C-18.83439321 44.78648296 -17.36484462 41.62756755 -15.89819336 38.46728516 C-13.28372778 32.84460689 -10.64379322 27.23971468 -7.90625 21.67578125 C-7.43364746 20.70938721 -6.96104492 19.74299316 -6.47412109 18.74731445 C-5.60707045 16.9816755 -4.73055149 15.22063761 -3.84228516 13.46557617 C-1.68987942 9.07325735 -0.60906789 6.00393105 -1 1 C-0.67 0.67 -0.34 0.34 0 0 Z " fill="url(#paint0_radial_anaco_green)" transform="translate(186,132)"/>
  <path d="M0 0 C0.66 0 1.32 0 2 0 C2 0.66 2 1.32 2 2 C2.66 2 3.32 2 4 2 C5.7710398 5.58099516 7.51552633 9.17362475 9.23681641 12.77880859 C9.82542506 14.00229915 10.42106367 15.2224343 11.02392578 16.43896484 C11.89133101 18.19241376 12.73116481 19.95941619 13.5703125 21.7265625 C14.08352051 22.78439941 14.59672852 23.84223633 15.12548828 24.93212891 C16.79964585 30.80523444 13.20242787 35.9359024 10.68359375 41.1953125 C10.1910183 42.23467201 10.1910183 42.23467201 9.68849182 43.29502869 C8.60797756 45.57319634 7.52272316 47.84907222 6.4375 50.125 C5.67737416 51.72565907 4.9176145 53.32649207 4.15820312 54.92749023 C2.57415621 58.26629325 0.98852093 61.60433517 -0.59814453 64.94189453 C-2.93626485 69.86265298 -5.26478855 74.78790067 -7.58984375 79.71484375 C-7.95937164 80.49778809 -8.32889954 81.28073242 -8.70962524 82.08740234 C-10.52301586 85.93030703 -12.33522022 89.77376843 -14.14648438 93.61767578 C-17.09455107 99.87090549 -20.04749754 106.12038444 -23.06640625 112.33984375 C-23.49888672 113.23501709 -23.93136719 114.13019043 -24.37695312 115.05249023 C-25.13326508 116.61386324 -25.89566963 118.17230978 -26.66601562 119.72680664 C-28.32412931 123.15696626 -29 125.10277925 -29 129 C-36.92 129 -44.84 129 -53 129 C-53 128.34 -53 127.68 -53 127 C-54.32 127 -55.64 127 -57 127 C-57 126.34 -57 125.68 -57 125 C-56.34 125 -55.68 125 -55 125 C-54.74130127 124.1642041 -54.48260254 123.3284082 -54.21606445 122.46728516 C-52.89223549 118.6927381 -51.27027026 115.12405556 -49.54296875 111.5234375 C-49.20396545 110.80933716 -48.86496216 110.09523682 -48.51568604 109.35949707 C-47.78803763 107.82748821 -47.05887631 106.29619718 -46.32833862 104.76556396 C-44.38375215 100.69079103 -42.45046631 96.61065678 -40.515625 92.53125 C-40.12712875 91.71292694 -39.73863251 90.89460388 -39.33836365 90.05148315 C-35.99819903 83.01090768 -32.70776822 75.94834174 -29.4375 68.875 C-23.57312789 56.20188997 -17.6347794 43.56432432 -11.67668152 30.93505859 C-11.04774278 29.59983014 -10.42028913 28.26390106 -9.79438782 26.92724609 C-8.21547889 23.55785272 -6.61339209 20.20310339 -4.96777344 16.86572266 C-4.64134857 16.19358231 -4.31492371 15.52144196 -3.97860718 14.82893372 C-3.0809613 12.98166001 -2.17243823 11.13968314 -1.26318359 9.2980957 C0.02838544 5.92588735 0.26261914 3.57318113 0 0 Z " fill="url(#paint0_radial_anaco_green)" transform="translate(203,169)"/>
</svg>
