<?xml version="1.0" encoding="UTF-8" standalone="no"?>
<!-- Created with Inkscape (http://www.inkscape.org/) -->

<svg
   width="1.6218729mm"
   height="1.9574345mm"
   viewBox="0 0 1.6218729 1.9574346"
   version="1.1"
   id="svg1"
   xml:space="preserve"
   xmlns="http://www.w3.org/2000/svg"
   xmlns:svg="http://www.w3.org/2000/svg"><defs
     id="defs1"><clipPath
       clipPathUnits="userSpaceOnUse"
       id="clipPath14"><rect
         style="fill:#000000;stroke-width:0.264583"
         id="rect15"
         width="1.6218736"
         height="1.9574336"
         x="63.225109"
         y="56.192326" /></clipPath></defs><g
     id="layer1"
     transform="translate(-63.22511,-60.779676)"><path
       style="fill:#000000"
       d="m 66.053196,58.19135 c -0.0082,-0.04099 -0.01491,-0.172849 -0.01491,-0.293009 0,-0.155835 -0.0134,-0.256603 -0.04674,-0.351467 -0.03069,-0.08731 -0.0419,-0.162811 -0.03266,-0.219801 0.0077,-0.04774 0.01852,-0.08681 0.02394,-0.08681 0.0054,0 0.07192,0.05098 0.147771,0.113295 0.07586,0.06231 0.188086,0.147957 0.249397,0.190322 0.08384,0.05793 0.111477,0.09222 0.111477,0.138331 0,0.07785 -0.06629,0.208118 -0.09642,0.189492 -0.01256,-0.0078 -0.02284,0.0061 -0.02284,0.03084 0,0.02473 -0.02534,0.06876 -0.05631,0.09785 l -0.05631,0.0529 -0.02974,-0.0718 c -0.01636,-0.03949 -0.04456,-0.0841 -0.06267,-0.09913 -0.05185,-0.04303 -0.07003,0.03861 -0.02419,0.108572 0.0489,0.07463 0.0483,0.110579 -0.0033,0.20131 -0.05259,0.09239 -0.06784,0.09224 -0.08646,-8.97e-4 z m 0.306673,-0.431441 c -0.01825,-0.07272 -0.12063,-0.18572 -0.168259,-0.18572 -0.04935,0 -0.06939,0.06477 -0.03345,0.108076 0.01639,0.01975 0.06589,0.05304 0.110001,0.07397 0.04411,0.02093 0.08019,0.04935 0.08019,0.06316 0,0.01381 0.0059,0.01922 0.01309,0.01202 0.0072,-0.0072 0.0065,-0.03938 -0.0016,-0.07151 z m -0.512393,0.332157 c -0.09598,-0.0483 -0.09094,-0.151246 0.014,-0.285944 0.04828,-0.06197 0.09635,-0.112675 0.10682,-0.112675 0.01047,0 0.01708,0.0966 0.0147,0.214659 -0.0047,0.232374 -0.01406,0.245083 -0.13552,0.18396 z m -2.139324,-0.09039 c -0.132095,-0.06539 -0.282757,-0.231975 -0.361272,-0.399462 -0.318138,-0.678683 0.338173,-1.368814 0.51588,-1.328995 -0.05364,0.131124 -0.07152,0.269704 -0.07846,0.416591 0,0.224156 0.0021,0.232719 0.112095,0.455045 0.184007,0.371954 0.199247,0.522248 0.07922,0.781305 -0.06678,0.144135 -0.106306,0.155294 -0.267476,0.07552 z m 0.374303,0.04065 c 0,-0.0049 0.02058,-0.05588 0.04573,-0.113296 0.108144,-0.246881 0.08752,-0.424894 -0.09225,-0.796098 -0.167099,-0.345053 -0.176183,-0.503539 -0.04409,-0.769216 0.05873,-0.11812 0.08602,-0.122758 0.247832,-0.04212 0.519125,0.258691 0.62136,1.11641 0.185072,1.552698 -0.102702,0.102701 -0.3423,0.22032 -0.3423,0.168035 z m 1.522802,-0.07424 c -0.242526,-0.0892 -0.272387,-0.181514 -0.109593,-0.3388 0.09307,-0.08992 0.316144,-0.222064 0.37487,-0.222064 0.0556,0 0.01821,0.04946 -0.0816,0.107954 -0.09614,0.05634 -0.156123,0.138517 -0.124324,0.170315 0.02522,0.02522 0.121416,-0.02402 0.186823,-0.09564 l 0.06759,-0.07401 v 0.06651 c 0,0.07821 -0.03001,0.140149 -0.122919,0.253661 -0.03734,0.04562 -0.06789,0.101973 -0.06789,0.125221 0,0.04917 -0.0069,0.04955 -0.12296,0.0068 z m -0.386955,-0.263231 c -0.02127,-0.02127 -0.03867,-0.06387 -0.03867,-0.09466 0,-0.0308 -0.01779,-0.08698 -0.03952,-0.124857 -0.04955,-0.08634 -0.02871,-0.182813 0.05073,-0.234866 0.03198,-0.02096 0.198783,-0.06636 0.37067,-0.100897 0.345681,-0.06946 0.367135,-0.06458 0.341091,0.07764 -0.01693,0.09247 -0.05187,0.119398 -0.233133,0.17972 -0.154095,0.05128 -0.31048,0.182517 -0.326873,0.27431 -0.0109,0.06104 -0.07473,0.07317 -0.124285,0.02361 z m 0.09166,-0.296255 c 0.0076,-0.01236 0.06462,-0.02933 0.126629,-0.03771 0.146551,-0.0198 0.267775,-0.05746 0.267775,-0.08317 0,-0.04012 -0.102188,-0.05176 -0.204037,-0.02325 -0.09665,0.02706 -0.290128,0.166598 -0.230996,0.166598 0.01471,0 0.03299,-0.01011 0.04063,-0.02247 z m 1.205359,0.184352 c 0,-0.07044 -0.155402,-0.21658 -0.307737,-0.289395 -0.126873,-0.06065 -0.166134,-0.09317 -0.202595,-0.167848 -0.05565,-0.113977 -0.03172,-0.206011 0.06213,-0.239019 0.08701,-0.0306 0.301938,0.01969 0.416537,0.09746 0.05053,0.03429 0.07529,0.04335 0.05647,0.02067 -0.04723,-0.05691 -0.186658,-0.123032 -0.299099,-0.141849 -0.238864,-0.03997 -0.22659,-0.03199 -0.22659,-0.147414 0,-0.05799 0.0053,-0.105437 0.01187,-0.105437 0.0065,0 0.0652,0.03831 0.130382,0.08514 0.127798,0.09181 0.244205,0.105169 0.258517,0.02966 0.01244,-0.06564 -0.108698,-0.125551 -0.28033,-0.138653 l -0.156218,-0.01193 0.05367,-0.05367 c 0.09145,-0.09146 0.295374,-0.0596 0.504541,0.07882 0.137923,0.09127 0.203718,0.207257 0.20174,0.355629 -0.002,0.149128 -0.04835,0.278538 -0.08118,0.226622 -0.01509,-0.02386 -0.02223,0.0089 -0.02248,0.102944 -3.65e-4,0.137664 -0.04361,0.283029 -0.09334,0.313764 -0.01446,0.0089 -0.02629,0.002 -0.02629,-0.01551 z m -0.07414,-0.49443 c -0.07777,-0.06479 -0.202435,-0.10437 -0.272976,-0.08667 -0.08597,0.02158 -0.07102,0.05719 0.03108,0.07404 0.04919,0.0081 0.132377,0.02792 0.18485,0.04401 0.11803,0.03619 0.130145,0.02952 0.05704,-0.03138 z m -1.38081,0.08834 c 0,-0.243567 0.100298,-0.295687 0.522592,-0.271568 0.29226,0.01669 0.348071,0.03697 0.282435,0.102602 -0.03168,0.03168 -0.08083,0.0387 -0.244295,0.03488 -0.237679,-0.0055 -0.322441,0.02496 -0.466969,0.168049 l -0.09376,0.09283 z m -0.02346,-0.271918 c 4.89e-4,-0.08505 0.0875,-0.240516 0.166569,-0.297637 0.0328,-0.02369 0.166486,-0.06505 0.297088,-0.09192 0.277568,-0.05709 0.376304,-0.04126 0.412474,0.06614 0.02271,0.06744 0.01211,0.265556 -0.01441,0.269258 -0.0085,0.0012 -0.185381,0.0039 -0.393155,0.006 -0.366037,0.0037 -0.379189,0.0056 -0.423367,0.06012 l -0.04559,0.05631 z m 0.530307,-0.192477 c 0.07543,-0.02039 0.137147,-0.0464 0.137147,-0.05779 0,-0.04153 -0.182103,-0.01875 -0.304109,0.03806 -0.21098,0.09823 -0.15002,0.10543 0.166962,0.01973 z m 1.084186,-0.06619 c -0.09991,-0.125868 -0.235394,-0.185262 -0.452118,-0.198204 -0.101668,-0.0061 -0.18485,-0.02088 -0.18485,-0.03291 0,-0.01203 0.02634,-0.04822 0.05854,-0.08042 0.142404,-0.142405 0.497769,-0.01107 0.622456,0.230052 0.02059,0.03982 0.03411,0.09334 0.03003,0.118927 -0.0064,0.03987 -0.01694,0.03452 -0.07406,-0.03745 z m -1.459298,-0.125961 c 0.01342,-0.0096 0.04145,-0.0444 0.06229,-0.07724 0.0863,-0.136015 0.393768,-0.212694 0.545374,-0.13601 0.05642,0.02854 0.135913,0.151244 0.112895,0.174263 -0.0059,0.0059 -0.07321,-0.0056 -0.14961,-0.02548 -0.156439,-0.04075 -0.378231,-0.01937 -0.478125,0.04608 -0.05549,0.03636 -0.141604,0.05341 -0.09282,0.01839 z m -5.275903,-0.985515 c -0.05475,-0.01031 -0.131206,-0.03511 -0.1699,-0.05512 -0.03869,-0.02001 -0.07708,-0.03144 -0.0853,-0.02541 -0.0082,0.006 -0.0098,0.0041 -0.0036,-0.0044 0.0063,-0.0084 -0.02011,-0.05123 -0.05861,-0.09507 -0.07441,-0.08475 -0.143591,-0.278604 -0.143591,-0.402382 0,-0.124694 0.06939,-0.317866 0.145182,-0.404194 0.11617,-0.13231 0.256449,-0.187119 0.450807,-0.176137 0.140675,0.0079 0.177759,0.01996 0.255362,0.08268 0.04993,0.04036 0.109883,0.105967 0.133221,0.145795 l 0.04243,0.07241 -0.07175,0.02501 c -0.06932,0.02416 -0.07328,0.02162 -0.11671,-0.07494 -0.08129,-0.180742 -0.205658,-0.250571 -0.36696,-0.206033 -0.249333,0.06884 -0.376017,0.487856 -0.243435,0.80517 0.167102,0.399932 0.649154,0.33787 0.798507,-0.102803 0.01966,-0.05802 0.0357,-0.07973 0.04092,-0.05541 0.01459,0.068 -0.09136,0.278562 -0.178793,0.355326 -0.127493,0.11194 -0.258625,0.147339 -0.427809,0.115487 z m 0.999188,-0.0034 c -0.28528,-0.06027 -0.379286,-0.419235 -0.160171,-0.611621 0.183128,-0.160788 0.467356,-0.125103 0.6186,0.07767 0.06754,0.09055 0.06632,0.298165 -0.0023,0.390205 -0.09753,0.130851 -0.265962,0.183929 -0.456149,0.14375 z m 0.216952,-0.04464 c 0.169691,-0.07732 0.18244,-0.505088 0.01768,-0.593264 -0.02524,-0.01351 -0.0795,-0.02456 -0.120579,-0.02456 -0.156422,0 -0.238516,0.106723 -0.238516,0.310072 0,0.250504 0.156817,0.391859 0.341414,0.307751 z m 1.729768,0.04939 c -0.179661,-0.03093 -0.289907,-0.16338 -0.290137,-0.348571 -1.85e-4,-0.148256 0.04881,-0.241141 0.162266,-0.307632 0.203012,-0.118972 0.452154,-0.03865 0.502208,0.161911 l 0.01637,0.06559 h -0.264954 -0.264953 v 0.07232 c 0,0.03978 0.01497,0.108139 0.03326,0.151918 0.09216,0.220562 0.381198,0.205822 0.468536,-0.02389 0.02956,-0.07776 0.05495,-0.06226 0.0341,0.02082 -0.0358,0.142651 -0.218478,0.238221 -0.396693,0.207538 z m 0.224903,-0.53007 c -0.02109,-0.08669 -0.07981,-0.137174 -0.159098,-0.136781 -0.09316,4.6e-4 -0.117264,0.01681 -0.166512,0.11293 l -0.03972,0.07752 h 0.189192 c 0.184168,0 0.188846,-0.0014 0.176136,-0.05367 z m 0.609904,0.53007 c -0.183925,-0.03167 -0.287814,-0.160581 -0.287814,-0.357145 0,-0.147763 0.05756,-0.251453 0.172007,-0.309838 0.114404,-0.05836 0.233457,-0.06117 0.344695,-0.0081 0.07571,0.0361 0.156648,0.149881 0.156648,0.220198 0,0.01746 -0.08762,0.02621 -0.262368,0.02621 h -0.262368 v 0.08467 c 0,0.170064 0.112397,0.297372 0.261712,0.29643 0.09986,-6.29e-4 0.170836,-0.05232 0.228516,-0.166431 0.02321,-0.04591 0.04649,-0.07079 0.05173,-0.05528 0.01253,0.03708 -0.04747,0.151349 -0.10844,0.206531 -0.062,0.05611 -0.183073,0.08194 -0.294315,0.06279 z m 0.216605,-0.541194 c -0.03814,-0.100306 -0.0691,-0.126003 -0.151828,-0.126003 -0.0774,0 -0.157614,0.06369 -0.187748,0.149073 -0.01323,0.03749 0.0046,0.04174 0.174743,0.04174 h 0.189474 z m 1.02453,0.540489 c -0.214996,-0.0345 -0.307011,-0.129212 -0.307011,-0.316022 0,-0.110651 0.0082,-0.127986 0.103894,-0.219678 l 0.103893,-0.09955 -0.04326,-0.08121 c -0.0239,-0.04487 -0.04371,-0.132734 -0.04426,-0.196345 -8.35e-4,-0.09617 0.01048,-0.12661 0.06872,-0.18485 0.05902,-0.05902 0.08858,-0.06972 0.192647,-0.06972 0.104066,0 0.133626,0.0107 0.192648,0.06972 0.07637,0.07637 0.08912,0.166541 0.03686,0.260781 -0.03034,0.05471 -0.215515,0.194235 -0.25779,0.194235 -0.03172,0 0.01906,0.086 0.179619,0.304225 0.124264,0.168889 0.149625,0.192138 0.178305,0.163457 0.05648,-0.05647 0.06415,-0.242101 0.01456,-0.35208 -0.04275,-0.09479 -0.04271,-0.09804 0.0014,-0.130261 0.02485,-0.01817 0.05349,-0.03304 0.06364,-0.03304 0.04264,0 0.07691,0.117817 0.07727,0.265604 3.36e-4,0.137807 -0.0085,0.169866 -0.06801,0.247943 -0.06544,0.08579 -0.06648,0.09107 -0.0242,0.121985 0.08941,0.06538 0.17491,0.01328 0.18184,-0.110796 0.0064,-0.11418 0.01305,-0.121492 0.08214,-0.09002 0.04893,0.02229 0.05745,0.03891 0.04539,0.08854 -0.02602,0.107063 -0.113876,0.174293 -0.22576,0.172749 -0.05485,-7.57e-4 -0.115031,-0.01408 -0.133736,-0.0296 -0.02464,-0.02045 -0.05208,-0.02141 -0.09962,-0.0035 -0.101807,0.03839 -0.198775,0.04672 -0.319116,0.02741 z m 0.238278,-0.04877 0.07537,-0.02628 -0.115901,-0.134723 c -0.06375,-0.0741 -0.145788,-0.180339 -0.182317,-0.236092 -0.03653,-0.05575 -0.07633,-0.101369 -0.08844,-0.101369 -0.04104,0 -0.119751,0.215256 -0.10326,0.282376 0.02455,0.09992 0.08111,0.171833 0.163237,0.207557 0.09315,0.04052 0.153648,0.04257 0.251306,0.0085 z m -0.10435,-0.723208 c 0.07943,-0.07491 0.08596,-0.09111 0.07922,-0.196587 -0.0062,-0.0974 -0.01702,-0.119569 -0.07074,-0.1452 -0.08605,-0.04106 -0.171499,-0.0056 -0.20988,0.08703 -0.03012,0.07272 -0.02299,0.145475 0.02654,0.270801 0.03401,0.08605 0.07011,0.08274 0.174856,-0.01605 z m 1.641938,0.770091 c -0.210561,-0.03701 -0.362197,-0.173708 -0.424164,-0.382375 -0.04641,-0.156261 -0.04634,-0.241463 3.22e-4,-0.398577 0.04634,-0.15606 0.171241,-0.297519 0.309205,-0.350207 0.140875,-0.0538 0.390835,-0.03927 0.480878,0.02796 0.07818,0.05837 0.211159,0.219138 0.194795,0.235503 -0.0065,0.0065 -0.04479,0.01839 -0.08512,0.02645 -0.06657,0.01331 -0.07477,0.0081 -0.08887,-0.05604 -0.01897,-0.08635 -0.135549,-0.210114 -0.21724,-0.230617 -0.08895,-0.02232 -0.230833,0.02417 -0.302685,0.09918 -0.176521,0.184292 -0.205176,0.576231 -0.05834,0.797939 0.07694,0.116162 0.244242,0.192341 0.376703,0.171522 0.178434,-0.02805 0.330821,-0.226925 0.33133,-0.432419 1.15e-4,-0.04615 -0.01241,-0.05367 -0.08947,-0.05367 -0.04928,0 -0.126261,0.01051 -0.171068,0.02336 -0.08028,0.02303 -0.144809,6.86e-4 -0.144809,-0.05014 0,-0.01151 0.128799,-0.02093 0.28622,-0.02093 0.174912,0 0.28622,0.0093 0.28622,0.02385 0,0.01312 -0.02784,0.02385 -0.06188,0.02385 h -0.06188 l 0.01654,0.262367 c 0.01459,0.231436 0.01204,0.262368 -0.0216,0.262368 -0.03002,0 -0.03814,-0.02617 -0.03814,-0.122836 V 55.27726 l -0.07081,0.09774 c -0.108972,0.150432 -0.248747,0.203233 -0.446145,0.168536 z m 0.929461,-0.0013 c -0.04205,-0.01106 -0.09303,-0.04378 -0.113296,-0.07271 -0.09648,-0.137739 0.01169,-0.283353 0.244515,-0.329158 0.17711,-0.03484 0.238599,-0.09007 0.205551,-0.184625 -0.0186,-0.05322 -0.03923,-0.06623 -0.114831,-0.07246 -0.07667,-0.0063 -0.105237,0.0051 -0.169968,0.06783 -0.07945,0.07701 -0.166335,0.08898 -0.166335,0.02292 0,-0.04951 0.154654,-0.119758 0.310102,-0.140852 0.120354,-0.01633 0.136806,-0.01261 0.208376,0.04714 l 0.07771,0.06487 0.0085,0.288879 0.0085,0.288878 h -0.07407 c -0.06015,0 -0.07407,-0.0097 -0.07407,-0.05186 v -0.05186 l -0.05732,0.05385 c -0.07122,0.06691 -0.192926,0.0956 -0.293419,0.06917 z m 0.244073,-0.08155 c 0.05899,-0.03865 0.106295,-0.160761 0.106536,-0.275017 l 1.33e-4,-0.06298 -0.125221,0.03569 c -0.06887,0.01963 -0.145793,0.05543 -0.170936,0.07954 -0.05017,0.04812 -0.06087,0.168812 -0.01939,0.218789 0.03817,0.04599 0.141744,0.04796 0.208877,0.004 z m 1.249486,0.08715 c -0.169787,-0.0514 -0.246697,-0.164483 -0.243772,-0.358413 0.0031,-0.206082 0.108501,-0.335163 0.287332,-0.351912 0.0939,-0.0088 0.129363,1.74e-4 0.20505,0.05187 l 0.09151,0.0625 -0.008,-0.27501 -0.008,-0.275011 0.07752,3.2e-5 0.07752,3.1e-5 v 0.522785 c 0,0.287532 0.0065,0.539763 0.01448,0.560513 0.01155,0.03011 -0.0029,0.03773 -0.07155,0.03773 -0.07514,0 -0.08603,-0.0073 -0.08603,-0.05779 v -0.05779 l -0.06972,0.06972 c -0.03835,0.03835 -0.08577,0.06972 -0.105381,0.06972 -0.01961,0 -0.04996,0.0044 -0.06743,0.0099 -0.01747,0.0054 -0.05953,0.0015 -0.09346,-0.0088 z m 0.234344,-0.08522 c 0.06311,-0.0442 0.101329,-0.171267 0.101508,-0.337451 1.13e-4,-0.105407 -0.0092,-0.130805 -0.06337,-0.173443 -0.130024,-0.102276 -0.245335,-0.09119 -0.319678,0.03073 -0.07905,0.129641 -0.05402,0.413177 0.04297,0.486829 0.05381,0.04086 0.175581,0.03746 0.238575,-0.0067 z m 0.68064,0.08393 c -0.175806,-0.03961 -0.273349,-0.165908 -0.276242,-0.357671 -0.0034,-0.22404 0.164602,-0.373793 0.394513,-0.351701 0.132982,0.01278 0.24184,0.09938 0.269873,0.214702 l 0.01595,0.06559 H 70.191063 69.92611 v 0.08467 c 0,0.25037 0.255787,0.392307 0.416955,0.231369 0.03613,-0.03608 0.07644,-0.09242 0.08958,-0.125221 0.01409,-0.03518 0.02846,-0.04731 0.03504,-0.02959 0.01542,0.04157 -0.0641,0.170969 -0.136091,0.22145 -0.07382,0.05176 -0.178663,0.06916 -0.279659,0.0464 z m 0.238285,-0.530448 c -0.04568,-0.187776 -0.280232,-0.179735 -0.347875,0.01193 -0.01322,0.03747 0.0045,0.04174 0.1731,0.04174 0.182756,0 0.187479,-0.0014 0.174775,-0.05367 z m -8.646341,0.196776 0.01258,-0.310071 h -0.07498 c -0.04124,0 -0.07498,-0.01073 -0.07498,-0.02385 0,-0.01312 0.03079,-0.02385 0.06842,-0.02385 0.06824,0 0.06845,-4.59e-4 0.07994,-0.179545 0.0093,-0.145298 0.02209,-0.190793 0.06692,-0.238516 0.06284,-0.06689 0.181086,-0.07791 0.336501,-0.03135 0.09876,0.02959 0.103888,0.03644 0.06862,0.09163 -0.01964,0.03073 -0.03947,0.0265 -0.140499,-0.02993 -0.188872,-0.105495 -0.250737,-0.04175 -0.225172,0.232019 l 0.01454,0.155684 h 0.103883 c 0.05714,0 0.103883,0.01073 0.103883,0.02385 0,0.01312 -0.04972,0.02385 -0.110498,0.02385 h -0.110498 l 0.0112,0.310071 0.0112,0.310071 h -0.07681 -0.07681 z m 0.524736,0 0.01258,-0.310071 h -0.07498 c -0.04124,0 -0.07498,-0.01073 -0.07498,-0.02385 0,-0.01312 0.03103,-0.02385 0.06895,-0.02385 h 0.06895 l 0.009,-0.177378 c 0.01118,-0.221305 0.06825,-0.299655 0.218275,-0.299655 0.127513,0 0.278866,0.04776 0.278866,0.08801 0,0.06058 -0.06764,0.05941 -0.174183,-0.003 -0.176365,-0.103356 -0.240251,-0.03315 -0.215083,0.236373 l 0.01454,0.155684 h 0.103884 c 0.05714,0 0.103883,0.01073 0.103883,0.02385 0,0.01312 -0.04972,0.02385 -0.110498,0.02385 h -0.110498 l 0.0112,0.310071 0.0112,0.310071 h -0.07681 -0.07681 z m 6.147516,-0.02385 v -0.333923 h 0.07752 c 0.07124,0 0.07752,0.0062 0.07752,0.07602 v 0.07602 l 0.06889,-0.066 c 0.04342,-0.0416 0.105149,-0.07087 0.166961,-0.07916 0.0883,-0.01184 0.09807,-0.0081 0.09807,0.03769 0,0.04362 -0.01389,0.05084 -0.09769,0.05084 -0.06053,0 -0.124039,0.01876 -0.166961,0.04933 -0.0685,0.04878 -0.06927,0.05196 -0.06927,0.286219 v 0.236892 h -0.07752 -0.07752 z m 2.289757,0 v -0.333923 h 0.07752 c 0.06122,0 0.07752,0.0099 0.07752,0.04698 0,0.04456 0.0045,0.04395 0.08681,-0.01193 0.09674,-0.06565 0.233216,-0.07698 0.301677,-0.02505 0.06389,0.04847 0.08855,0.166824 0.08855,0.425128 v 0.23271 h -0.07155 -0.07155 v -0.271651 c 0,-0.227771 -0.0071,-0.280365 -0.04368,-0.325593 -0.05441,-0.06719 -0.147477,-0.05072 -0.232647,0.04118 -0.05318,0.05739 -0.0576,0.08107 -0.0576,0.309106 v 0.246959 h -0.07752 -0.07752 z m 1.800798,-0.03578 c 0,-0.03111 0.107333,-0.03578 0.822882,-0.03578 0.452584,0 0.822881,0.0092 0.822881,0.0204 0,0.03528 -0.29972,0.05081 -0.98388,0.05098 -0.572514,1.47e-4 -0.661883,-0.0047 -0.661883,-0.03561 z M 56.11601,55.093637 c 0,-0.01549 0.325972,-0.02385 0.930213,-0.02385 0.604242,0 0.930214,0.0084 0.930214,0.02385 0,0.01549 -0.325972,0.02385 -0.930214,0.02385 -0.604241,0 -0.930213,-0.0084 -0.930213,-0.02385 z M 71.959768,52.55597 c 0.07892,0.05919 -0.05818,-0.02061 -0.215462,0.304758 -0.122969,0.254387 -0.19629,0.375293 -0.275817,0.454821 -0.181218,0.181217 -0.338384,0.218606 -0.529672,0.126005 -0.134239,-0.06498 -0.214513,-0.187443 -0.248187,-0.378589 l -0.02662,-0.151107 -0.03522,0.06952 c -0.127606,0.251879 -0.293792,0.420338 -0.474927,0.481389 -0.105406,0.03553 -0.254758,-0.0067 -0.353669,-0.09998 -0.173166,-0.163317 -0.19928,-0.552004 -0.07143,-1.063219 0.139349,-0.557203 0.14591,-0.691697 0.03374,-0.691697 -0.06917,0 -0.319323,0.255801 -0.466504,0.477033 -0.289712,0.435472 -0.419514,0.719303 -0.520886,1.138987 -0.05249,0.217314 -0.107677,0.292111 -0.215526,0.292111 -0.04403,0 -0.09698,-0.01694 -0.117684,-0.03764 -0.08226,-0.08226 -0.08729,-0.121378 -0.04802,-0.373329 0.021,-0.134724 0.05321,-0.340908 0.07159,-0.458186 0.01837,-0.117277 0.03021,-0.216428 0.0263,-0.220335 -0.0039,-0.0039 -0.03242,0.05448 -0.06337,0.129752 -0.217345,0.528665 -0.603836,0.895614 -0.979156,0.929647 -0.219009,0.01986 -0.363607,-0.02704 -0.475572,-0.154235 -0.10708,-0.12165 -0.138504,-0.208892 -0.159663,-0.44332 l -0.01467,-0.162537 -0.09778,0.18518 c -0.0569,0.107754 -0.157702,0.246763 -0.241088,0.33246 -0.125104,0.128573 -0.160786,0.151192 -0.280918,0.178077 -0.106713,0.02388 -0.164135,0.02467 -0.255736,0.0035 -0.255657,-0.05901 -0.381436,-0.212858 -0.381436,-0.466548 0,-0.193288 0.03612,-0.320261 0.183412,-0.644801 0.07089,-0.156197 0.123299,-0.298574 0.116462,-0.316392 -0.01225,-0.03192 -0.08117,-0.06549 -0.191104,-0.09308 -0.05152,-0.01293 -0.06211,0.0015 -0.130052,0.177719 -0.138261,0.358524 -0.193189,0.45612 -0.256709,0.45612 -0.04633,0 -0.03959,-0.09779 0.01562,-0.226591 0.02624,-0.06121 0.0477,-0.114604 0.0477,-0.118658 0,-0.0063 -0.129023,-0.04546 -0.373446,0.140219 -0.02873,0.02183 -0.05574,0.07773 -0.07158,0.11021 -0.01584,0.03247 -0.104043,0.217261 -0.19601,0.410639 -0.244139,0.513345 -0.390725,0.645446 -0.674055,0.607443 -0.231702,-0.03108 -0.37203,-0.215625 -0.398312,-0.523848 l -0.01677,-0.196675 -0.114473,0.21914 c -0.129171,0.247278 -0.265777,0.415991 -0.372675,0.46027 -0.119238,0.04939 -0.338519,0.02138 -0.440288,-0.05625 -0.147872,-0.112787 -0.169201,-0.165288 -0.165593,-0.407606 0.0035,-0.234296 0.07576,-0.715094 0.156464,-1.04093 0.04792,-0.193474 0.04781,-0.283728 -3.62e-4,-0.283728 -0.05943,0 -0.200689,0.132693 -0.368489,0.346141 -0.28924,0.367922 -0.334318,0.478861 -0.411582,1.01293 -0.02179,0.150602 -0.05477,0.303138 -0.0733,0.33897 -0.04521,0.08743 -0.192163,0.13375 -0.292498,0.09219 -0.114924,-0.0476 -0.131959,-0.124686 -0.101703,-0.460204 0.02557,-0.283509 0.148798,-1.066608 0.194074,-1.23328 0.02648,-0.09749 0.02034,-0.107085 -0.05623,-0.08787 -0.08023,0.02014 -0.256976,0.204536 -0.414427,0.432377 -0.235989,0.341489 -0.259934,0.398392 -0.359561,0.854427 -0.09933,0.454687 -0.131165,0.519366 -0.272569,0.553792 -0.05237,0.01275 -0.07901,0.0018 -0.137147,-0.05633 -0.07183,-0.07183 -0.07215,-0.07337 -0.07215,-0.342952 0,-0.179128 0.0277,-0.4684 0.08184,-0.854531 0.09321,-0.664834 0.112767,-0.764231 0.166509,-0.846252 0.08595,-0.131176 0.245661,-0.167459 0.28897,-0.06565 0.0098,0.02307 0.02141,0.195394 0.02576,0.382941 0.01084,0.466731 0.01607,0.471628 0.215585,0.201841 0.274278,-0.370879 0.465287,-0.529928 0.644637,-0.536777 0.233377,-0.0089 0.338867,0.199872 0.267984,0.53039 -0.01432,0.06677 -0.01988,0.137436 -0.01236,0.157041 0.02173,0.05662 0.112844,-0.01619 0.217493,-0.173798 0.103406,-0.155741 0.283019,-0.341732 0.397295,-0.411403 0.1957,-0.119312 0.408633,-0.01386 0.459592,0.227597 0.0085,0.04044 -2.86e-4,0.249733 -0.0196,0.465107 -0.08074,0.900381 -0.07322,1.07136 0.04711,1.07136 0.04062,0 0.08079,-0.03265 0.139397,-0.113295 0.114361,-0.157367 0.377576,-0.691238 0.464736,-0.942611 0.106773,-0.307935 0.200004,-0.442753 0.330979,-0.615167 0.139629,-0.183807 0.480141,-0.32716 0.685508,-0.185058 0.04247,0.02939 0.07083,0.09316 0.12911,0.09111 0.149901,0.189057 0.09788,0.621586 0.148536,0.745539 0.06319,0 0.443594,-0.269381 0.472305,-0.338694 0.02597,-0.0627 0.02259,-0.07851 -0.03217,-0.150299 -0.101656,-0.133279 -0.134253,-0.240586 -0.133852,-0.440633 9.05e-4,-0.450781 0.171949,-0.757626 0.439109,-0.787739 0.190868,-0.02151 0.323771,0.106069 0.323771,0.310808 0,0.124525 -0.06588,0.320621 -0.180906,0.538487 -0.05792,0.109707 -0.105314,0.225577 -0.105314,0.257489 0,0.0671 0.09719,0.174421 0.159915,0.176594 0.292637,0.01014 0.354397,0.05881 0.330862,0.26077 -0.0084,0.07221 -0.07398,0.305294 -0.145707,0.517955 -0.07172,0.212661 -0.130405,0.419982 -0.130405,0.460712 0,0.09783 0.04192,0.173648 0.08655,0.156523 0.01978,-0.0076 0.02881,-0.0032 0.02061,0.01008 -0.02137,0.03458 0.0964,0.02886 0.187232,-0.0091 0.139251,-0.05818 0.374346,-0.38967 0.518136,-0.730578 0.119324,-0.282904 0.335577,-0.686244 0.435658,-0.81256 0.122501,-0.154613 0.324921,-0.297262 0.467174,-0.329224 0.266484,-0.05988 0.455987,0.161128 0.358355,0.417922 -0.06111,0.160722 -0.335517,0.437438 -0.659635,0.665176 -0.137393,0.09654 -0.158676,0.159181 -0.144722,0.425955 0.024,0.458812 0.191704,0.568353 0.528549,0.345236 0.205737,-0.136274 0.550229,-0.605524 0.648024,-0.882706 0.02005,-0.05682 0.05459,-0.130321 0.07677,-0.163331 0.02372,-0.03531 0.06249,-0.201507 0.09416,-0.403614 0.05835,-0.37242 0.08617,-0.431584 0.202893,-0.431584 0.07362,0 0.162052,0.03752 0.191146,0.08109 0.0096,0.01443 0.01769,0.195292 0.01789,0.401907 2.01e-4,0.206614 0.009,0.375663 0.01954,0.375663 0.02627,0 0.142811,-0.128443 0.259701,-0.28622 0.214829,-0.289974 0.458356,-0.47611 0.623808,-0.476799 0.07235,-3.02e-4 0.170018,0.05862 0.230271,0.138927 0.04206,0.05605 0.04748,0.09888 0.04578,0.361724 -0.0013,0.206337 -0.0182,0.378937 -0.05478,0.560513 -0.07605,0.377457 -0.09278,0.684068 -0.0416,0.762188 0.04995,0.07624 0.08791,0.07639 0.177882,6.82e-4 0.152497,-0.128317 0.327081,-0.443116 0.469377,-0.84635 0.189565,-0.537183 0.433859,-0.877167 0.737802,-1.026798 0.164905,-0.08118 0.37046,-0.112773 0.473448,-0.07276 0.100863,0.03919 0.14574,0.166177 0.112878,0.31941 -0.02992,0.139536 -0.05974,0.183858 -0.123664,0.183858 -0.06293,0 -0.0763,-0.05022 -0.04831,-0.181438 0.03317,-0.155505 0.0197,-0.176337 -0.113953,-0.176337 -0.08676,0 -0.135197,0.01599 -0.207836,0.06861 -0.305326,0.221177 -0.519251,0.904977 -0.45983,1.469824 0.01104,0.104947 0.02065,0.19714 0.02136,0.204873 0.0033,0.03602 0.123543,0.0671 0.178618,0.04616 0.07205,-0.02739 0.225871,-0.219209 0.332247,-0.414305 0.405508,-0.743715 0.50507,-0.970116 0.522949,-1.189173 -0.0039,-0.04439 0.0403,-0.02642 0.06869,-0.04503 0.06781,-0.03629 0.131859,-0.0051 0.16093,0.07825 0.01629,0.04674 0.02585,0.333452 0.02585,0.775771 0,0.43804 0.0093,0.718964 0.02469,0.747767 0.214465,0.400563 0.570246,-1.36734 0.566584,-1.367947 0,0 0.07123,-0.03294 0.06242,0.02699 -0.238804,1.625259 -0.72549,1.970111 -0.96611,1.480755 -0.07768,-0.157978 -0.129714,-0.402896 -0.139486,-0.719742 z m -7.608223,0.603278 c 0.04976,-0.05231 0.154173,-0.225078 0.234236,-0.387589 0.147623,-0.299643 0.255157,-0.441976 0.207431,-0.441976 -0.167585,0 -0.421786,-0.392752 -0.299799,-0.629483 0.01603,-0.0311 0.05501,-0.08432 0.08661,-0.118263 0.113885,-0.122313 -0.01204,-0.191337 -0.17045,-0.09343 -0.217921,0.134682 -0.34857,0.513639 -0.383311,1.111817 -0.03297,0.567693 0.0045,0.62308 0.325278,0.558925 z m 3.108026,-1.007037 c -0.139643,0.0147 0.323692,-0.28469 0.386861,-0.382871 0.07107,-0.110467 0.07286,-0.201397 0.0054,-0.27323 -0.10539,-0.112183 -0.259342,-0.04477 -0.408968,0.179088 -0.09365,0.140112 -0.215097,0.480149 -0.19251,0.539011 0.01581,0.04119 0.09036,0.0191 0.209236,-0.062 z m -2.735436,-0.489825 c -0.115405,0.07663 -0.09502,0.300773 0.03749,0.412275 0.159777,0.04018 0.09676,-0.501447 -0.03749,-0.412275 z m 1.036031,-0.41856 c 0.08071,-0.130222 0.163823,-0.357428 0.163823,-0.447826 0,-0.09247 -0.07971,-0.173771 -0.150293,-0.153289 -0.12994,0.03771 -0.194329,0.214258 -0.178536,0.48954 0.01545,0.269372 0.05193,0.294033 0.165006,0.111575 z m -5.824873,2.657757 c -0.324735,-0.04639 -0.565626,-0.293416 -0.657868,-0.558038 -0.03316,-0.09513 -0.04382,-0.195733 -0.04382,-0.413578 v -0.287868 l -0.118395,0.156684 c -0.171306,0.226707 -0.33429,0.37417 -0.508148,0.45976 -0.129381,0.06369 -0.180306,0.07532 -0.335437,0.0766 -0.334271,0.0028 -0.53933,-0.146669 -0.646059,-0.470775 -0.182165,-0.553184 -0.152703,-1.294448 0.07964,-2.003722 0.300483,-0.917294 1.003071,-1.685665 1.541349,-1.685665 0.313826,0 0.449236,0.180337 0.470123,0.626106 l 0.01202,0.256405 h -0.06224 c -0.07013,0 -0.0706,-0.0013 -0.105261,-0.29896 -0.02643,-0.226903 -0.07646,-0.344107 -0.170654,-0.399748 -0.194567,-0.114934 -0.432018,0.02433 -0.681957,0.399967 -0.280165,0.421062 -0.585744,1.202779 -0.671546,1.717913 -0.03299,0.198042 -0.04362,0.388095 -0.04336,0.775178 3.18e-4,0.481382 0.0038,0.521326 0.05605,0.65176 0.07088,0.176794 0.158996,0.239284 0.310433,0.220157 0.230145,-0.02907 0.537798,-0.305637 0.80549,-0.724106 0.139399,-0.217917 0.171025,-0.309435 0.247118,-0.715105 0.07936,-0.423067 0.190728,-0.83334 0.311957,-1.149192 0.113985,-0.296978 0.214863,-0.375714 0.327611,-0.255699 0.08026,0.08543 0.07255,0.175533 -0.08914,1.041971 -0.21016,1.126184 -0.274424,2.015258 -0.161458,2.233712 0.05414,0.104687 0.192728,0.218158 0.288372,0.2361 0.08978,0.01684 0.125945,0.06953 0.08313,0.121114 -0.03346,0.04032 -0.03866,0.0175 -0.237943,-0.01097 z"
       id="path1"
       clip-path="url(#clipPath14)"
       transform="translate(0,4.5873513)" /></g></svg>
