<?xml version="1.0" encoding="UTF-8" standalone="no"?>
<!-- Created with Inkscape (http://www.inkscape.org/) -->

<svg
   width="77.858406mm"
   height="22.497997mm"
   viewBox="0 0 77.858406 22.497997"
   version="1.1"
   id="svg1"
   xml:space="preserve"
   xmlns="http://www.w3.org/2000/svg"
   xmlns:svg="http://www.w3.org/2000/svg"><defs
     id="defs1" /><g
     id="layer1"
     transform="translate(-48.049574,-93.238204)"><path
       style="fill:#000000"
       d="m 69.149171,115.55985 c -0.09701,-0.097 -0.176389,-1.46623 -0.176389,-3.04271 0,-1.57647 -0.07211,-2.86632 -0.160243,-2.86632 -0.08813,0 -0.510219,0.29449 -0.937966,0.65441 -2.352115,1.97918 -5.811128,1.26617 -7.377442,-1.52071 -2.131651,-3.79276 -0.307889,-8.47563 3.624865,-9.30755 1.103542,-0.23344 2.784373,0.238087 3.752471,1.05269 0.973018,0.81874 1.098315,0.817 1.098315,-0.0153 0,-0.779439 0.626974,-1.120946 1.193995,-0.650361 0.331248,0.274911 0.393505,1.506101 0.393505,7.781891 0,7.47376 -0.07125,8.09031 -0.934861,8.09031 -0.164924,0 -0.379236,-0.0794 -0.47625,-0.17639 z m -2.079235,-6.18007 c 1.801585,-1.09839 2.43652,-4.19279 1.300939,-6.3402 -1.845306,-3.489527 -6.530386,-2.4321 -7.17837,1.62017 -0.308566,1.92967 0.843205,4.39593 2.334739,4.99931 0.995504,0.40273 2.636221,0.27339 3.542692,-0.27928 z m -15.102333,1.77206 c -3.442183,-1.0707 -4.941197,-5.16757 -3.1693,-8.66183 1.025736,-2.0228 2.453615,-2.973669 4.486143,-2.987464 2.060222,-0.01398 3.52844,0.757694 4.457317,2.342704 0.846702,1.44478 1.158684,3.25385 0.619969,3.59497 -0.203037,0.12856 -2.259971,0.23557 -4.570965,0.2378 l -4.201806,0.004 0.150684,0.92856 c 0.317489,1.95645 2.00611,3.30478 4.138867,3.30478 1.152185,0 2.329294,-0.47473 2.908958,-1.17318 0.447079,-0.5387 1.235971,-0.5311 1.445117,0.0139 0.22926,0.59744 -1.353131,2.03132 -2.680635,2.42905 -1.287967,0.38588 -2.265753,0.37678 -3.584349,-0.0334 z m 4.964826,-7.05434 c 0.321666,-0.52046 -0.687111,-2.03759 -1.753288,-2.63681 -1.864446,-1.04788 -4.059042,-0.36403 -5.046211,1.57243 -0.24822,0.48691 -0.390022,0.98446 -0.315114,1.10567 0.195205,0.31585 6.918003,0.27684 7.114613,-0.0413 z m 18.992293,7.14851 c -1.33112,-0.31626 -2.189849,-1.01051 -2.734966,-2.21113 -0.671674,-1.47935 -0.762133,-8.63734 -0.115932,-9.17364 0.30719,-0.254945 0.482407,-0.258391 0.775375,-0.01525 0.290993,0.2415 0.39804,1.25707 0.463021,4.39274 0.08316,4.01304 0.09584,4.08992 0.788567,4.78193 0.961597,0.9606 2.909453,1.14743 4.108363,0.39407 1.146083,-0.72017 1.40204,-1.81769 1.403823,-6.01945 0.0012,-2.8156 0.07555,-3.505851 0.390694,-3.626782 0.21407,-0.08215 0.571258,0.03268 0.79375,0.255172 0.319788,0.31979 0.404532,1.09658 0.404532,3.70806 0,1.81693 -0.129981,3.81972 -0.288846,4.45063 -0.611428,2.4282 -3.164805,3.73451 -5.988381,3.06365 z m 23.920961,-0.0121 c -0.409645,-0.12296 -1.145875,-0.52947 -1.636067,-0.90336 l -0.891258,-0.67979 -0.08373,0.72766 c -0.06644,0.57746 -0.220265,0.72766 -0.745184,0.72766 h -0.661453 l -0.06993,-8.10618 c -0.06307,-7.311033 -0.02734,-8.12252 0.364265,-8.272791 0.93815,-0.360002 1.16087,0.304438 1.16087,3.463226 v 3.026755 l 1.189574,-0.85429 c 1.011673,-0.726529 1.417249,-0.854083 2.71198,-0.852922 1.80116,0.0016 2.88874,0.498522 3.97471,1.815992 3.60875,4.37803 -0.183,11.44809 -5.31378,9.90804 z m 3.207587,-1.85408 c 1.8058,-1.10097 2.46726,-4.398 1.29919,-6.47583 -1.4483,-2.57634 -4.989882,-2.61346 -6.541524,-0.0686 -0.647787,1.06245 -0.723487,3.81734 -0.136107,4.95321 1.033173,1.99794 3.509611,2.73058 5.378441,1.59119 z m 15.56994,1.75126 c -2.28167,-0.84508 -3.44397,-2.7641 -3.46053,-5.71355 -0.009,-1.56614 0.1149,-2.22212 0.58687,-3.1124 1.54658,-2.917286 5.3138,-3.772701 7.71536,-1.75191 0.74773,0.62916 0.80579,0.64053 0.80579,0.15773 0,-0.65489 0.66028,-1.222083 1.18725,-1.019867 0.60004,0.230255 0.60004,11.222637 0,11.452887 -0.51722,0.19848 -1.18725,-0.36074 -1.18725,-0.99089 0,-0.42911 -0.14681,-0.38784 -1.1595,0.32598 -1.36978,0.9655 -3.00153,1.20257 -4.48799,0.65202 z m 3.80268,-1.67052 c 1.05474,-0.73341 1.52913,-1.44737 1.85811,-2.79647 0.91183,-3.7393 -2.23488,-6.856343 -5.39728,-5.34639 -2.80221,1.33796 -3.01394,6.45963 -0.33459,8.09344 1.04604,0.63786 2.9918,0.66269 3.87376,0.0494 z m -38.247869,1.55244 c 0,0 -0.207068,-1.47304 -0.207068,-5.65597 0,-4.18294 0.23427,-5.34456 0.23427,-5.34456 l 1.792177,0.0681 c 0,0 0.377381,1.01408 0.31688,5.38295 -0.06107,4.40972 -0.214648,5.56679 -0.214648,5.56679 z m 4.169984,-0.0844 c -0.232884,-0.23288 -0.325223,-1.66259 -0.325223,-5.03549 v -4.71027 c -0.947783,-1.214096 -3.538582,-1.5647 -1.915909,-2.539781 0.349608,-0.210084 0.895006,-0.611846 0.980486,0.415677 0.09251,1.112044 0.935423,0.684575 0.935423,-0.608621 0,-0.973671 -0.162528,-1.322651 -1.077628,-2.313882 -0.951346,-1.030494 -1.107913,-1.113166 -1.336064,-0.705483 -0.444277,0.793879 -0.420247,0.478237 -0.608603,-0.636637 -0.330674,-1.957243 -0.222934,-2.043715 1.597004,-0.396018 1.227739,1.111543 1.285917,1.133868 1.681561,0.645268 0.262629,-0.324334 0.57529,-0.442614 0.870526,-0.329321 0.392637,0.150669 0.460704,0.54397 0.460704,2.662023 0,1.366879 0.08584,2.532407 0.160359,2.485234 1.475603,-0.934054 1.380804,-1.527488 2.687066,-1.353833 2.183278,0.290246 -0.264252,-0.167515 -1.987529,2.343374 -0.714032,1.04038 -0.859896,1.52402 -0.859896,2.70006 v 1.42972 l 0.661459,-0.6214 0.661458,-0.62141 v 0.80944 c 0,0.56815 -0.194217,0.9367 -0.651524,1.23633 -0.603609,0.3955 -0.65712,0.6067 -0.727604,2.87168 -0.06027,1.9367 -0.159705,2.46076 -0.478462,2.52167 -0.22131,0.0423 -0.548732,-0.0695 -0.727604,-0.24833 z m 3.577381,0.0294 c 0,0 -0.331499,-0.77979 -0.331499,-5.49491 0,-3.75408 0.223275,-4.71988 0.30767,-5.651518 0.01443,-0.159267 1.888944,-0.129605 1.901941,-0.03751 0.108932,0.771848 0.191683,0.941388 0.191683,5.643478 0,2.33196 -0.227093,5.55082 -0.227093,5.55082 z m 16.382114,0.10398 c -0.097,-0.097 -0.17639,-2.58275 -0.17639,-5.52385 0,-4.43053 0.068,-5.40395 0.39688,-5.676844 0.57172,-0.474491 1.19062,0.113578 1.19062,1.131314 v 0.80194 l 0.92694,-0.95444 c 1.53273,-1.578194 4.10015,-1.924632 4.10015,-0.55326 0,0.66854 -0.10247,0.70927 -1.61281,0.64113 -0.69448,-0.0313 -1.1864,0.15487 -1.82191,0.68962 -1.33932,1.12696 -1.59237,2.03641 -1.59237,5.72291 0,2.18501 -0.10488,3.36775 -0.3175,3.58037 -0.35129,0.35129 -0.82261,0.41211 -1.09361,0.14111 z M 84.10055,98.572672 c -0.481973,-0.305578 -0.290731,-1.895296 0.27025,-2.246464 0.747862,-0.468154 1.915986,0.09708 2.017455,0.976214 0.04689,0.406304 -0.05698,0.910128 -0.230835,1.11961 -0.346227,0.417178 -1.502864,0.501888 -2.05687,0.15064 z m 7.348627,-0.852742 c -0.714295,-1.334673 0.572031,-2.525098 2.017074,-1.866692 0.687627,0.313304 0.829139,1.047187 0.368056,1.90873 -0.39258,0.733542 -1.985074,0.705474 -2.38513,-0.04204 z"
       id="path2" /></g></svg>
