<?xml version="1.0" encoding="UTF-8" standalone="no"?>
<!-- Created with Inkscape (http://www.inkscape.org/) -->

<svg
   width="28"
   height="43"
   viewBox="0 0 28 43"
   version="1.1"
   id="svg1"
   xml:space="preserve"
   xmlns="http://www.w3.org/2000/svg"><defs/><g

     transform="translate(-62.742406,-80.663204)"><path
       style="fill:#047857;stroke-width:0.337336"
       d="m 76.353342,122.90969 c -0.431948,-0.84001 -0.953632,-1.42552 -2.065565,-2.31826 -1.405613,-1.12855 -2.27858,-2.0553 -2.644875,-2.80788 -0.171736,-0.3528 -0.338046,-0.644 -0.369569,-0.64709 -0.0316,-0.003 -0.21047,0.19528 -0.397667,0.4407 -0.419816,0.55048 -0.59578,0.58545 -0.518643,0.10304 0.06814,-0.42608 -0.09118,-1.22213 -0.391174,-1.95441 -0.251509,-0.6139 -0.336969,-0.64499 -0.298235,-0.10854 0.04148,0.57436 0.07037,0.59316 -1.722032,-1.11947 -0.770642,-0.73635 -1.438818,-1.35219 -1.484835,-1.36856 -0.124118,-0.0442 -0.100851,0.81242 0.0468,1.72189 0.07137,0.43977 0.107391,0.82134 0.08003,0.8479 -0.08784,0.0854 -0.734466,-0.71329 -0.961991,-1.18801 -0.121108,-0.25273 -0.305707,-0.88121 -0.41021,-1.39664 -0.104492,-0.51545 -0.210545,-0.99742 -0.235674,-1.07106 -0.02528,-0.0736 -0.195937,0.26545 -0.379628,0.75348 -0.487243,1.29465 -0.573475,1.24183 -0.520178,-0.31868 0.03382,-0.98478 0.09862,-1.49824 0.27976,-2.21065 0.12977,-0.51035 0.224188,-0.93971 0.209766,-0.9541 -0.0145,-0.0145 -0.198539,0.0896 -0.409236,0.2311 -0.357266,0.23995 -1.309514,0.51951 -1.413914,0.41511 -0.02565,-0.0256 0.07911,-0.20285 0.232701,-0.39392 0.162295,-0.202 0.404441,-0.71822 0.578378,-1.23316 0.407593,-1.20665 0.685967,-1.96876 1.11641,-3.05645 0.410206,-1.03654 0.428773,-1.12995 0.208352,-1.04828 -0.310985,0.11524 -1.520185,0.87968 -1.789304,1.13118 -0.151589,0.14167 -0.296302,0.22412 -0.321616,0.18319 -0.07371,-0.11925 0.25597,-1.10636 0.519969,-1.55683 0.305335,-0.52104 1.198242,-1.35423 1.611358,-1.50362 0.172853,-0.0625 0.314294,-0.14107 0.314294,-0.1746 0,-0.0334 -0.226157,-0.15273 -0.502547,-0.26492 -0.543079,-0.22044 -1.755895,-1.12878 -1.677175,-1.25615 0.02639,-0.0429 0.327527,-0.0779 0.668987,-0.0779 0.576401,0 0.643318,-0.0208 0.935294,-0.29005 0.271916,-0.25081 0.327601,-0.37466 0.411395,-0.914857 0.123376,-0.795325 0.05382,-2.274189 -0.195229,-4.150298 -0.325967,-2.455895 -0.175419,-4.590301 0.458518,-6.499668 0.33091,-0.996666 1.197231,-2.816165 1.317031,-2.766097 0.03679,0.01525 0.339608,0.326598 0.672811,0.691543 0.673837,0.738065 1.155683,1.178693 2.016572,1.844077 0.625815,0.483692 2.043965,1.515885 2.650956,1.929481 0.511349,0.348418 1.412912,1.247796 1.585604,1.581747 0.162556,0.314331 0.303775,0.333883 1.025256,0.141887 0.267717,-0.07126 0.500384,-0.115904 0.517052,-0.09921 0.01673,0.01673 -0.07397,0.258275 -0.201438,0.536924 -0.127465,0.278645 -0.255227,0.715374 -0.283961,0.970515 l -0.05223,0.463899 0.287381,-0.357006 c 0.738764,-0.917741 1.876227,-2.064001 2.443466,-2.46236 0.34392,-0.24151 0.636159,-0.428227 0.649459,-0.41492 0.01338,0.01338 -0.03272,0.425146 -0.10204,0.91521 -0.133859,0.944959 -0.150475,1.788609 -0.0439,2.229832 0.07182,0.297417 0.06966,0.300948 0.353101,-0.575528 0.259726,-0.803168 1.014748,-1.878949 1.318689,-1.878949 0.06572,0 0.180509,0.232069 0.264891,0.535523 0.0819,0.294554 0.177127,0.535522 0.21166,0.535522 0.03457,0 0.17434,-0.168614 0.310725,-0.374714 0.433622,-0.655244 1.029356,-1.22053 2.269451,-2.153457 2.390449,-1.798347 4.034702,-3.176243 4.423459,-3.706896 0.147278,-0.201029 0.299574,-0.366447 0.338419,-0.367599 0.113674,-0.0035 0.584924,1.119804 0.819189,1.952483 0.657475,2.336952 0.776144,4.692905 0.414043,8.220337 -0.196345,1.91276 -0.190993,3.312514 0.01413,3.707026 0.282847,0.543923 0.547069,0.698233 1.286553,0.751383 l 0.680335,0.0489 -0.246974,0.29285 c -0.344627,0.4086 -0.931294,0.79397 -1.579914,1.03781 l -0.551484,0.20731 0.312733,0.10323 c 0.538599,0.17776 1.429097,0.98912 1.753412,1.5976 0.225192,0.42253 0.544117,1.24585 0.551863,1.4247 0.0041,0.098 -0.259946,-0.0331 -0.649953,-0.32273 -0.591638,-0.43924 -1.66191,-1.03127 -1.734009,-0.95917 -0.03011,0.0302 0.113116,0.37416 0.318754,0.76412 0.363844,0.69 0.82533,1.93382 1.296272,3.49374 0.135829,0.44994 0.342769,0.90691 0.500704,1.10563 0.360536,0.45364 0.34392,0.52079 -0.110142,0.44535 -0.4326,-0.0719 -0.783308,-0.23222 -1.214766,-0.5554 -0.259873,-0.19464 -0.292994,-0.20218 -0.248014,-0.0564 0.419748,1.36094 0.658214,3.06521 0.550034,3.93099 -0.05828,0.46648 -0.07646,0.50044 -0.187052,0.34921 -0.06736,-0.0921 -0.251807,-0.52901 -0.409846,-0.97084 -0.332136,-0.9285 -0.349979,-0.91491 -0.563019,0.42902 -0.161923,1.02145 -0.486108,1.7767 -1.019876,2.37592 -0.19155,0.21501 -0.369347,0.37051 -0.395115,0.34552 -0.02565,-0.0249 0.01189,-0.35778 0.08419,-0.73955 0.07208,-0.38179 0.119287,-0.98389 0.104901,-1.33802 l -0.02602,-0.64389 -0.892543,0.85408 c -1.626959,1.55682 -2.106935,2.00175 -2.191878,2.0318 -0.04625,0.0164 -0.08539,-0.18445 -0.08695,-0.44627 -0.0027,-0.44273 -0.01227,-0.46362 -0.136796,-0.29879 -0.227793,0.30142 -0.492588,1.30468 -0.54802,2.07642 -0.02899,0.40498 -0.08416,0.73634 -0.122371,0.73634 -0.03821,0 -0.223035,-0.1991 -0.410697,-0.44245 -0.187684,-0.24338 -0.361317,-0.44246 -0.385851,-0.44243 -0.02453,3e-5 -0.240655,0.3372 -0.480209,0.74924 -0.474441,0.816 -1.243321,1.62782 -2.599044,2.74422 -1.012631,0.83387 -1.500915,1.37918 -2.007658,2.24212 -0.220583,0.37566 -0.421418,0.68286 -0.446267,0.68266 -0.0249,-2.3e-4 -0.194822,-0.2914 -0.377729,-0.64709 z m 1.734489,-3.39562 c 0.447248,-0.15854 0.677104,-0.38368 0.783779,-0.76769 0.106461,-0.38332 0.119063,-1.14089 0.02007,-1.20212 -0.03866,-0.0238 -0.226269,0.21161 -0.416912,0.52333 -0.190658,0.31173 -0.446246,0.62009 -0.568007,0.68526 -0.145828,0.078 -0.559362,0.11854 -1.21197,0.11854 -1.186607,0 -1.345786,-0.0773 -1.761081,-0.8566 -0.153375,-0.28775 -0.318792,-0.4985 -0.3676,-0.46834 -0.15869,0.098 -0.02639,1.34574 0.165231,1.56015 0.175344,0.19604 0.899315,0.54982 1.003228,0.49029 0.03234,-0.0186 0.139211,0.001 0.237384,0.0443 0.242253,0.10601 1.706334,0.0178 2.115971,-0.12717 z m 3.111125,-5.52884 c 0.353139,-0.69199 0.699073,-1.64563 0.93106,-2.56659 0.190807,-0.75741 0.415179,-1.55551 0.455861,-1.62144 0.08423,-0.13645 0.818897,0.26713 1.304236,0.71646 0.286934,0.26564 0.548436,0.45625 0.581118,0.42357 0.11386,-0.11385 0.134564,-2.19327 0.02899,-2.91492 -0.05844,-0.39972 -0.09331,-0.73975 -0.07743,-0.7556 0.03679,-0.0368 1.735651,0.3724 1.85654,0.44711 0.172034,0.10632 0.09285,-0.71971 -0.132408,-1.38208 -0.122596,-0.36049 -0.200807,-0.67761 -0.173745,-0.70467 0.02714,-0.0272 0.217757,0.0338 0.423763,0.13535 0.20601,0.1015 0.531363,0.25321 0.722998,0.33712 l 0.348419,0.15255 -0.06848,-1.0092 c -0.03766,-0.55507 -0.04665,-1.0754 -0.06405,-1.16365 -0.03382,-0.12955 -0.04802,-0.14795 -0.07914,-0.20608 -0.02565,-0.0477 -0.03974,-0.18547 -0.08357,-0.34902 -0.104083,-0.38841 -0.406567,-1.94201 -0.626613,-2.37334 -0.287269,-0.5631 -0.698439,-0.9784 -0.966884,-0.97659 -0.352878,0.002 -1.418675,0.77439 -1.76707,1.28002 -0.363696,0.52784 -0.398378,0.81557 -0.08896,0.73791 0.311319,-0.0781 0.345741,0.0238 0.129175,0.38171 -0.541247,0.8952 -1.467274,1.34743 -2.759172,1.34743 -0.66657,0 -0.746444,0.0222 -1.448309,0.40164 -0.408556,0.22092 -0.767868,0.40165 -0.798473,0.40165 -0.163968,0 0.402764,-1.19542 0.973218,-2.05284 0.826538,-1.24233 1.610871,-1.89332 3.119897,-2.58946 1.490489,-0.687589 1.518045,-0.704671 1.721825,-1.067251 0.155529,-0.276787 0.276191,-1.073736 0.162517,-1.073736 -0.01561,0 -0.234038,0.195305 -0.485637,0.433993 -0.287491,0.272772 -0.6832,0.528051 -1.065145,0.687171 -0.334255,0.139248 -0.937238,0.425923 -1.339983,0.637052 -0.402747,0.21114 -0.771461,0.383871 -0.819368,0.383871 -0.05643,0 -0.05677,-0.102155 -0.001,-0.290096 0.285671,-0.962273 0.380668,-2.030516 0.180547,-2.030516 -0.0316,0 -0.29567,0.431763 -0.586579,0.959475 -0.70736,1.283127 -1.31865,2.145307 -2.161225,3.048217 -0.3849,0.41246 -0.791065,0.88355 -0.902594,1.04688 -0.364068,0.53311 -0.757361,1.64881 -0.803194,2.27839 l -0.04327,0.5943 0.479994,0.13746 c 2.015587,0.57733 2.173415,0.63857 2.294422,0.89053 0.175195,0.36478 -0.02342,0.92734 -0.421886,1.19468 -0.429086,0.2879 -0.633888,0.26924 -0.633888,-0.0578 0,-0.29012 -0.347824,-0.63125 -0.643679,-0.63125 -0.185714,0 -0.695127,0.45582 -0.695127,0.62198 0,0.2379 0.43948,0.53128 0.884313,0.59028 0.249985,0.0331 0.453657,0.10531 0.452642,0.16037 -10e-4,0.0551 -0.392628,0.30589 -0.870228,0.55746 -0.777132,0.40933 -0.871219,0.48551 -0.89549,0.72495 -0.01598,0.15929 0.02007,0.28545 0.08926,0.3118 0.107168,0.0407 1.108741,-0.14325 2.732879,-0.50199 0.359124,-0.0794 0.704423,-0.14423 0.767364,-0.14423 0.240023,0 0.241473,3.42851 0.0024,5.4891 l -0.05178,0.44627 0.279092,-0.40166 c 0.153522,-0.22087 0.437821,-0.71264 0.63181,-1.0928 z m -6.51437,-1.05328 c 0.06182,-0.34581 0.144749,-0.64879 0.1843,-0.67324 0.05959,-0.0368 3.368802,-0.0784 3.707336,-0.0466 0.05787,0.006 0.151032,0.24085 0.206977,0.5231 0.203147,1.0249 0.231287,1.03793 0.578642,0.26776 0.208092,-0.46137 0.25913,-0.71853 0.29515,-1.48698 0.0391,-0.83354 0.02862,-0.92337 -0.102266,-0.87317 -0.484202,0.18583 -1.835453,0.35626 -2.824216,0.35626 -0.983882,0 -2.339643,-0.17033 -2.818473,-0.35403 -0.120141,-0.0461 -0.136907,0.0338 -0.1178,0.56077 0.01227,0.33798 0.05416,0.78511 0.09308,0.99359 0.08051,0.43099 0.497546,1.36142 0.610208,1.36142 0.04107,0 0.125235,-0.28296 0.187053,-0.62879 z M 67.854699,96.365699 c 0.555078,-0.549803 1.583468,-1.321691 2.297418,-1.724388 0.284519,-0.160475 0.492993,-0.316041 0.463315,-0.345705 -0.02974,-0.02974 -0.280206,-0.138393 -0.556774,-0.241584 -0.276564,-0.103191 -0.516296,-0.228053 -0.532772,-0.277493 -0.01635,-0.04944 0.202107,-0.140587 0.485774,-0.20259 0.575018,-0.125717 1.221802,-0.384279 1.30731,-0.522627 0.03123,-0.05055 -0.406924,-0.340872 -0.991819,-0.657207 -1.105678,-0.597961 -2.116915,-1.388092 -2.476252,-1.934808 -0.118431,-0.180212 -0.300874,-0.428074 -0.405384,-0.550796 l -0.190026,-0.223146 0.05412,0.666729 c 0.06178,0.760532 0.333437,1.437711 0.810328,2.019666 0.170473,0.208054 0.309982,0.421718 0.309982,0.474819 0,0.05513 -0.174861,0.09654 -0.407657,0.09654 -0.38161,0 -0.403697,0.01301 -0.345704,0.200806 0.111703,0.362134 0.286748,0.642907 0.566888,0.909232 0.354329,0.336858 0.347191,0.407259 -0.04118,0.407259 H 67.88533 l 0.227681,0.298495 c 0.125235,0.164192 0.227682,0.325148 0.227682,0.357749 0,0.03271 -0.256862,0.414255 -0.570806,0.848162 -0.554421,0.766282 -0.858288,1.268159 -0.856266,1.414232 5.43e-4,0.03926 0.108024,-0.06918 0.238871,-0.241026 0.130848,-0.171812 0.446837,-0.519368 0.702238,-0.772345 z m 18.918273,0.470416 c -0.130624,-0.22285 -0.435379,-0.673318 -0.677272,-1.001001 -0.241882,-0.327676 -0.439807,-0.654255 -0.439807,-0.725708 0,-0.07145 0.0843,-0.236678 0.18735,-0.367117 l 0.187349,-0.237235 -0.365852,-0.02751 c -0.201215,-0.01487 -0.365852,-0.04646 -0.365852,-0.06966 0,-0.02305 0.143151,-0.167909 0.318122,-0.321543 0.174971,-0.153634 0.414084,-0.46869 0.531379,-0.700156 l 0.213258,-0.420852 -0.401913,-0.04531 c -0.221065,-0.0249 -0.424777,-0.06818 -0.452735,-0.09613 -0.02788,-0.02787 0.08739,-0.212329 0.256379,-0.409696 0.616647,-0.720418 1.055681,-1.973884 0.903597,-2.579837 -0.05476,-0.218203 -0.05825,-0.216604 -0.219876,0.09843 -0.235562,0.459177 -1.090739,1.354039 -1.72204,1.801968 -0.298012,0.211437 -0.916566,0.571825 -1.374595,0.800864 -0.681238,0.340648 -0.813985,0.439081 -0.729477,0.540912 0.117093,0.141106 0.762222,0.365406 1.294499,0.450073 0.874053,0.139026 0.872878,0.210843 -0.0089,0.532378 l -0.678104,0.247309 0.298792,0.177164 c 0.996855,0.591114 2.088424,1.402267 2.665969,1.981103 0.365852,0.36667 0.67993,0.710872 0.697929,0.764873 0.01784,0.05398 0.05215,0.07873 0.07594,0.05501 0.0238,-0.0238 -0.06368,-0.225526 -0.194263,-0.448397 z m -5.36514,-7.083817 c 0.268274,-0.870212 0.336931,-1.375714 0.305372,-2.247569 -0.02936,-0.808689 -0.06929,-1.014405 -0.280504,-1.442035 -0.543548,-1.100548 -1.503714,-1.724065 -2.877432,-1.868547 -1.031017,-0.108432 -2.740385,-0.108804 -3.680055,-6.77e-4 -0.983982,0.113153 -1.675413,0.429681 -2.238057,1.024594 -0.753859,0.797094 -0.854213,1.074471 -0.857451,2.369905 -0.0015,0.613622 0.03197,1.292462 0.07427,1.508543 l 0.07706,0.392869 -0.34485,-0.211215 C 70.911033,88.864588 69.268346,87.59886 68.681603,87.040091 l -0.596214,-0.567793 0.124788,-0.580148 c 0.06866,-0.319089 0.326189,-0.987249 0.572364,-1.484815 0.401697,-0.811945 0.53543,-0.987815 1.304867,-1.716014 0.826636,-0.782322 1.545255,-1.227764 2.582042,-1.600489 1.521578,-0.547012 6.270912,-0.575873 7.943583,-0.04829 1.243703,0.392293 2.138051,0.966508 3.146412,2.020148 0.698851,0.730228 1.285916,1.902995 1.502952,3.002421 l 0.148653,0.753123 -0.307193,0.273292 c -0.863299,0.768022 -3.533457,2.817024 -3.671003,2.817024 -0.04026,0 -0.05156,-0.07029 -0.0249,-0.156199 z"
       id="path1" /></g></svg>
